<svg xmlns="http://www.w3.org/2000/svg" width="64" height="64" viewBox="0 0 48 48"><g fill="none"><path fill="#8fbffa" d="M24 1.5C11.574 1.5 1.5 11.574 1.5 24S11.574 46.5 24 46.5S46.5 36.426 46.5 24S36.426 1.5 24 1.5"/><path fill="#2859c5" fill-rule="evenodd" d="M17.091 32.5c.443 3.068 1.116 5.815 1.952 8.076c.779 2.106 1.67 3.713 2.585 4.765c.486.558.94.92 1.355 1.137a22.5 22.5 0 0 1-4.769-.729c-.75-1.184-1.412-2.584-1.985-4.133c-.957-2.589-1.7-5.694-2.167-9.116H3.16a22 22 0 0 1-.984-3H13.73a65 65 0 0 1-.23-5.5c0-1.881.08-3.722.231-5.5H2.177q.39-1.547.984-3h10.903c.469-3.422 1.214-6.527 2.173-9.116c.574-1.55 1.237-2.951 1.988-4.136a22.5 22.5 0 0 1 4.764-.726c-.413.217-.866.579-1.352 1.137c-.914 1.053-1.807 2.66-2.587 4.766c-.837 2.262-1.512 5.008-1.957 8.075h13.813c-.445-3.067-1.12-5.813-1.957-8.075c-.78-2.106-1.672-3.713-2.587-4.766c-.485-.558-.938-.92-1.352-1.137c1.64.073 3.234.32 4.764.726c.751 1.185 1.415 2.585 1.989 4.136c.958 2.589 1.703 5.694 2.172 9.116H44.84q.594 1.453.984 3H34.268c.152 1.778.232 3.619.232 5.5s-.08 3.723-.231 5.5h11.554a22 22 0 0 1-.984 3H33.938c-.468 3.422-1.21 6.527-2.167 9.116c-.573 1.549-1.236 2.95-1.986 4.133a22.5 22.5 0 0 1-4.769.729c.416-.218.87-.58 1.355-1.137c.915-1.052 1.807-2.659 2.586-4.765c.836-2.261 1.508-5.008 1.951-8.076zM31.5 24c0-1.894-.085-3.736-.244-5.5H16.743A62 62 0 0 0 16.5 24a62 62 0 0 0 .242 5.5h14.516A62 62 0 0 0 31.5 24" clip-rule="evenodd"/></g></svg>